<svg id="all-lockpad" xmlns="http://www.w3.org/2000/svg" viewBox="0 0 800 800">
  <defs>
    <style>
      .cls-1 {
        fill: #f5821f;
      }

      .cls-1, .cls-2 {
        fill-rule: evenodd;
      }

      .cls-2 {
        fill: #fff;
      }
    </style>
  </defs>
  <path id="Forma_1" data-name="Forma 1" class="cls-1" d="M0,800S803.307,0.012,800,0,2.752,0.088,0,0V800Z"/>
  <g id="lockpad">
    <path id="pad" class="cls-2" d="M131.949,189.79H299.074a20,20,0,0,1,20,20V331.353a20,20,0,0,1-20,20H131.949a20,20,0,0,1-20-20V209.79A20,20,0,0,1,131.949,189.79Z"/>
    <path id="lock" class="cls-2" d="M289.386,166.33c0.235,13.429,0,50.4,0,50.4-1.806.015-26.925,0-26.925,0-0.143-6.212,0-50.4,0-50.4-0.054-1.749,0-13.117,0-13.117-0.011-17.944-8.3-49.7-46.256-49.708-0.53.025-2.761,0-2.761,0-32.423-.011-44.87,28.312-44.875,49.708,0.005,0.451,0,63.515,0,63.515-0.509-.014-26.925,0-26.925,0-0.008-.34-0.05-56.533,0-63.515,0.017-26.757,10.714-42.535,16.569-49.708,11.657-14.5,31.067-27.618,55.231-27.615,0.721-.006-18.858,0,2.761,0,20.718-.066,43.621,10.414,56.612,27.615,11.767,15.874,16.624,28.244,16.569,49.708C289.414,155.376,289.358,165.473,289.386,166.33Z"/>
  </g>
</svg>
