<svg id="ICON" xmlns="http://www.w3.org/2000/svg" viewBox="0 0 300 300">
  <defs>
    <style>
      .cls-1 {
        fill: #f5821f;
      }

      .cls-1, .cls-2 {
        fill-rule: evenodd;
      }

      .cls-2 {
        fill: #fff;
      }
    </style>
  </defs>
  <path id="Forma_1" data-name="Forma 1" class="cls-1" d="M0,300S301.24,0,300,0,1.032,0.033,0,0V300Z"/>
  <g id="PADLOCK">
    <path id="Retângulo_Arredondado_1" data-name="Retângulo Arredondado 1" class="cls-2" d="M47,73.433h71a3,3,0,0,1,3,3V132a3,3,0,0,1-3,3H47a3,3,0,0,1-3-3V76.433A3,3,0,0,1,47,73.433Z"/>
    <g id="Agrupar_1" data-name="Agrupar 1">
      <path id="Forma_2" data-name="Forma 2" class="cls-2" d="M55.792,57.335c-0.016-9.085,8.132-27.354,27.142-27.344-0.016,3.271-.022,9.144,0,10.938-13.553-.07-17.137,11.338-17.19,16.407-0.053,1.561,0,16.137,0,16.407-1.214.006-9.733,0-9.952,0C55.792,73.452,55.786,61.693,55.792,57.335Z"/>
      <path id="Forma_2-2" data-name="Forma 2" class="cls-2" d="M110.1,57.335c0.016-9.085-8.132-27.354-27.141-27.344,0.016,3.271.022,9.144,0,10.938,13.552-.07,17.136,11.338,17.189,16.407,0.053,1.561,0,16.137,0,16.407,1.214,0.006,9.733,0,9.952,0C110.1,73.452,110.11,61.693,110.1,57.335Z"/>
    </g>
  </g>
</svg>
